<svg xmlns="http://www.w3.org/2000/svg" version="1.1"  width="1920" height="1080" preserveAspectRatio="none" viewBox="0 0 1920 1080"><g mask="url(&quot;#SvgjsMask1017&quot;)" fill="none"><rect width="1920" height="1080" x="0" y="0" fill="rgba(242, 145, 0, 1)"></rect><path d="M2048 1080L0 1080 L0 708.62Q70.78 619.4, 160 690.19Q169.34 539.53, 320 548.86Q406.11 474.97, 480 561.08Q637.21 558.29, 640 715.5Q679.34 594.84, 800 634.17Q838 512.17, 960 550.17Q1026.87 521.03, 1056 587.9Q1124.18 496.09, 1216 564.27Q1283.92 536.19, 1312 604.11Q1382 514.11, 1472 584.11Q1558.8 574.91, 1568 661.72Q1591.31 525.03, 1728 548.34Q1827.82 488.15, 1888 587.97Q2003.87 543.84, 2048 659.7z" fill="rgba(255, 168, 1, 1)"></path><path d="M2048 1080L0 1080 L0 839.55Q75.33 754.88, 160 830.2Q145.13 719.33, 256 704.45Q397.57 686.02, 416 827.59Q488.12 739.71, 576 811.83Q681.63 757.46, 736 863.08Q773.79 740.87, 896 778.66Q955.72 678.38, 1056 738.1Q1105.01 627.12, 1216 676.13Q1339.51 639.64, 1376 763.16Q1463.39 690.55, 1536 777.94Q1543.89 689.83, 1632 697.72Q1672.69 642.41, 1728 683.1Q1875.59 670.69, 1888 818.28Q1938.88 709.16, 2048 760.05z" fill="rgba(249, 187, 4, 1)"></path><path d="M1984 1080L0 1080 L0 874.11Q64.94 779.05, 160 843.99Q232.56 820.55, 256 893.11Q344.48 885.59, 352 974.06Q356.45 818.5, 512 822.95Q617.59 832.54, 608 938.12Q707.64 877.76, 768 977.4Q820.29 869.69, 928 921.99Q988.26 886.25, 1024 946.51Q1046.05 808.56, 1184 830.6Q1225.01 775.61, 1280 816.62Q1347.3 787.92, 1376 855.22Q1432.63 815.85, 1472 872.47Q1529.62 770.09, 1632 827.7Q1741.21 776.91, 1792 886.13Q1857.53 855.65, 1888 921.18Q1957.72 894.9, 1984 964.63z" fill="rgba(254, 225, 43, 1)"></path><path d="M2016 1080L0 1080 L0 1098.06Q11.06 949.12, 160 960.18Q233.26 873.44, 320 946.7Q416.96 883.66, 480 980.62Q616.33 956.95, 640 1093.28Q672.81 1030.09, 736 1062.89Q851.21 1018.1, 896 1133.31Q897.74 975.05, 1056 976.8Q1089.58 914.38, 1152 947.95Q1281.28 917.23, 1312 1046.51Q1350.31 988.82, 1408 1027.13Q1536.16 995.29, 1568 1123.45Q1571.27 966.72, 1728 970Q1764.56 910.56, 1824 947.12Q1877.15 904.27, 1920 957.42Q1997.76 939.17, 2016 1016.93z" fill="rgba(255, 255, 255, 1)"></path></g><defs><mask id="SvgjsMask1017"><rect width="1920" height="1080" fill="#ffffff"></rect></mask></defs></svg>